<?xml version="1.0" encoding="UTF-8" standalone="no"?>
<!-- Generator: Adobe Illustrator 22.1.0, SVG Export Plug-In . SVG Version: 6.00 Build 0)  -->

<svg
   version="1.1"
   id="Layer_1"
   x="0px"
   y="0px"
   viewBox="0 0 110 40"
   style="enable-background:new 0 0 110 40;"
   xml:space="preserve"
   sodipodi:docname="discord.svg"
   inkscape:version="1.4.2 (ebf0e940d0, 2025-05-08)"
   xmlns:inkscape="http://www.inkscape.org/namespaces/inkscape"
   xmlns:sodipodi="http://sodipodi.sourceforge.net/DTD/sodipodi-0.dtd"
   xmlns="http://www.w3.org/2000/svg"
   xmlns:svg="http://www.w3.org/2000/svg"><defs
   id="defs13" /><sodipodi:namedview
   id="namedview13"
   pagecolor="#ffffff"
   bordercolor="#000000"
   borderopacity="0.25"
   inkscape:showpageshadow="2"
   inkscape:pageopacity="0.0"
   inkscape:pagecheckerboard="0"
   inkscape:deskcolor="#d1d1d1"
   inkscape:zoom="4.1159091"
   inkscape:cx="45.919381"
   inkscape:cy="-13.970182"
   inkscape:window-width="1920"
   inkscape:window-height="1027"
   inkscape:window-x="0"
   inkscape:window-y="0"
   inkscape:window-maximized="1"
   inkscape:current-layer="Layer_1" />
<style
   type="text/css"
   id="style1">
	.st0{fill:url(#SVGID_1_);}
	.st1{enable-background:new    ;}
	.st2{fill:#FFFFFF;}
</style>
<g
   id="g2">
	
		<linearGradient
   id="SVGID_1_"
   gradientUnits="userSpaceOnUse"
   x1="-495.4546"
   y1="19.25"
   x2="-494.4546"
   y2="19.25"
   gradientTransform="matrix(110 0 0 40.0001 54500 -750.0013)">
		<stop
   offset="1"
   style="stop-color:#5864b5;stop-opacity:1;"
   id="stop1" />
		<stop
   offset="1"
   style="stop-color:#7289DA"
   id="stop2" />
	</linearGradient>
	<path
   class="st0"
   d="M8.8,0c-0.3,0-0.7,0-1,0S7.2,0,6.9,0C6.3,0,5.7,0.1,5.1,0.2S3.9,0.5,3.3,0.8C2.8,1.1,2.3,1.5,1.8,2   C1.4,2.5,1,3,0.8,3.6C0.5,4.2,0.3,4.9,0.2,5.5C0.1,6.2,0,6.9,0,7.5c0,0.3,0,0.6,0,0.9v23.1c0,0.3,0,0.6,0,0.9c0,0.7,0.1,1.3,0.2,2   s0.3,1.3,0.6,1.9C1,37,1.4,37.5,1.8,38s0.9,0.9,1.5,1.2c0.5,0.3,1.1,0.5,1.7,0.6C5.7,39.9,6.3,40,6.9,40c0.3,0,0.6,0,0.8,0   c0.3,0,0.7,0,1,0h92.5c0.3,0,0.7,0,1,0s0.6,0,0.8,0c0.6,0,1.2-0.1,1.8-0.2c0.6-0.1,1.2-0.3,1.8-0.6c0.6-0.3,1.1-0.7,1.5-1.2   s0.8-1,1.1-1.6c0.3-0.6,0.5-1.2,0.6-1.9s0.2-1.3,0.2-2c0-0.3,0-0.6,0-0.9c0-0.4,0-0.7,0-1.1v-21c0-0.4,0-0.7,0-1.1   c0-0.3,0-0.6,0-0.9c0-0.7-0.1-1.3-0.2-2s-0.3-1.3-0.6-1.9c-0.6-1.2-1.5-2.2-2.6-2.8c-0.5-0.3-1.1-0.5-1.8-0.6   C104.2,0.1,103.6,0,103,0c-0.3,0-0.6,0-0.8,0c-0.3,0-0.7,0-1,0L8.8,0z"
   id="path2"
   style="fill:#2974a1;fill-opacity:1" />
</g>
<g
   class="st1"
   id="g10">
	
	
	
	
	
	
	
	
</g>
<path
   class="st2"
   d="m 87.174621,19.384085 c -0.83761,0 -1.67522,0.837608 -1.67522,1.814818 0,0.977209 0.69801,1.814817 1.67522,1.814817 0.83761,0 1.67521,-0.837608 1.67521,-1.814817 0,-1.116811 -0.698,-1.814818 -1.67521,-1.814818 z m 5.86326,0 c -0.83761,0 -1.67522,0.837608 -1.67522,1.814818 0,0.977209 0.69801,1.814817 1.67522,1.814817 0.8376,0 1.67521,-0.837608 1.67521,-1.814817 0,-0.97721 -0.83761,-1.814818 -1.67521,-1.814818 z"
   id="path11"
   style="stroke-width:1.39601" />
<path
   class="st2"
   d="M 100.71595,6.1219558 H 79.496541 c -1.81481,0 -3.21083,1.3960136 -3.21083,3.2108313 V 30.691795 c 0,1.814818 1.39602,3.210817 3.21083,3.210831 0,0 13.71103,1.65e-4 21.219799,1.65e-4 1.5468,0 3.35004,-1.664201 3.35004,-3.211 0,-7.150321 0,-21.3590039 0,-21.3590039 -0.1396,-1.8148177 -1.53561,-3.2108313 -3.35043,-3.2108313 z M 94.573491,26.782957 c 0,0 -0.5584,-0.698007 -0.97721,-1.256412 2.09402,-0.558406 2.93163,-1.814818 2.93163,-1.814818 -0.69801,0.418804 -1.25641,0.698007 -1.81482,0.97721 -0.83761,0.279202 -1.53561,0.558405 -2.23362,0.698007 -1.53561,0.279202 -2.93163,0.139601 -4.04844,0 -0.83761,-0.139602 -1.67522,-0.418805 -2.37322,-0.698007 -0.41881,-0.139602 -0.69801,-0.279203 -1.11681,-0.558406 0,0 -0.1396,0 -0.1396,-0.139601 v 0 c -0.27921,-0.139601 -0.41881,-0.279203 -0.41881,-0.279203 0,0 0.69801,1.256412 2.79203,1.814818 -0.41881,0.558405 -1.11681,1.256412 -1.11681,1.256412 -3.49004,-0.139601 -4.88605,-2.373223 -4.88605,-2.373223 0,-5.16525 2.23362,-9.21369 2.23362,-9.21369 2.23362,-1.675216 4.46725,-1.675216 4.46725,-1.675216 l 0.1396,0.139602 c -2.79203,0.837607 -4.18804,2.09402 -4.18804,2.09402 0,0 0.2792,-0.139602 0.97721,-0.418804 1.67521,-0.698007 3.07123,-0.97721 3.62963,-0.97721 h 0.2792 c 0.97721,-0.139601 2.09402,-0.139601 3.21083,0 1.53562,0.139601 3.07123,0.558406 4.74645,1.535615 0,0 -1.25641,-1.256412 -3.90884,-1.954419 l 0.27921,-0.279202 c 0,0 2.23362,0 4.46724,1.675216 0,0 2.23362,4.18804 2.23362,9.213689 -0.2792,-0.139601 -1.67522,2.094021 -5.16525,2.233622 z"
   id="path12"
   style="stroke-width:1.39601"
   sodipodi:nodetypes="ssssssscsccccccccsscccccccccscccccccc" />
<path
   class="st2"
   d="M 10.541524,20.1 H 6.7415238 V 28 h 2.5 v -5.4 h 1.3000002 c 0.8,0 1.3,0.4 1.3,1.1 v 3.2 c 0,0.7 -0.4,1.1 -1.3,1.1 H 6.7415238 v 2.4 h 3.8000002 c 2,0 3.9,-1 3.9,-3.3 v -3.4 c 0,-2.6 -1.9,-3.6 -3.9,-3.6 z m 19.7,6.8 v -3.5 c 0,-1.3 2.2,-1.6 2.9,-0.3 l 2.1,-0.8 c -0.8,-1.8 -2.3,-2.3 -3.5,-2.3 -2,0 -4,1.2 -4,3.5 V 27 c 0,2.3 2,3.5 4,3.5 1.3,0 2.8,-0.6 3.6,-2.3 l -2.2,-1 c -0.7,1.2 -2.9,0.9 -2.9,-0.3 z m -6.9,-3.1 c -0.8,-0.2 -1.3,-0.5 -1.3,-0.9 0,-1.2 1.8,-1.2 2.9,-0.1 l 1.7,-1.3 c -1,-1.3 -2.2,-1.6 -3.4,-1.6 -1.8,0 -3.6,1 -3.6,3 0,1.9 1.5,3 3.1,3.2 0.8,0.1 1.7,0.4 1.7,1 -0.1,1.1 -2.3,1 -3.3,-0.2 l -1.6,1.5 c 0.9,1.2 2.2,1.8 3.4,1.8 1.8,0 3.9,-1.1 4,-3 0,-2.4 -1.8,-3 -3.6,-3.4 z m -7.6,6.4 h 2.5 V 20.1 h -2.5 z m 42.8,-10.1 h -3.8 v 7.909538 l 2.5,-1.41e-4 v -5.409395 h 1.3 c 0.799999,0 1.299999,0.4 1.299999,1.1 v 3.2 c 0,0.7 -0.4,1.1 -1.299999,1.1 l -3.8,-0.0095 v 2.40954 h 3.8 c 1.999999,0 3.899999,-1 3.899999,-3.3 v -3.4 c 0,-2.6 -1.9,-3.6 -3.899999,-3.6 z m -18.5,-0.2 c -2.1,0 -4.2,1.1 -4.2,3.5 v 3.5 c 0,2.3 2.1,3.5 4.2,3.5 2.1,0 4.2,-1.2 4.2,-3.5 v -3.5 c 0,-2.3 -2.1,-3.5 -4.2,-3.5 z m 1.7,6.9 c 0,0.7 -0.8,1.1 -1.6,1.1 -0.8,0 -1.6,-0.4 -1.6,-1.1 v -3.5 c 0,-0.7 0.8,-1.1 1.6,-1.1 0.8,0 1.7,0.4 1.7,1.1 z m 11.6,-3.4 c -0.1,-2.4 -1.7,-3.3 -3.7,-3.3 h -4 v 10.1 h 2.6 V 27 h 0.5 l 2.3,3.2 h 3.2 l -2.7,-3.5 c 1.1,-0.4 1.8,-1.4 1.8,-3.3 z m -3.7,1.4 h -1.5 v -2.3 h 1.5 c 1.6,-0.1 1.6,2.3 0,2.3 z"
   id="path13"
   sodipodi:nodetypes="sccccssssccssssssccssssccscsccssscccscccccccsccccssssccssssscsssssccssscccscccccccccscccsc" />
<text
   xml:space="preserve"
   style="font-size:6.72364px;line-height:1;font-family:'Yu-Gi-Oh! Matrix Small Caps 1';-inkscape-font-specification:'Yu-Gi-Oh! Matrix Small Caps 1, ';text-align:start;writing-mode:lr-tb;direction:ltr;text-anchor:start;fill:#5865f2;fill-opacity:1;stroke:#21180a;stroke-width:0.168092;stroke-linecap:round;paint-order:markers fill stroke"
   x="6.1880322"
   y="16.781124"
   id="text13"><tspan
     sodipodi:role="line"
     id="tspan13"
     x="6.1880322"
     y="16.781124"
     style="font-style:normal;font-variant:normal;font-weight:normal;font-stretch:normal;font-family:'Roboto Condensed';-inkscape-font-specification:'Roboto Condensed, ';fill:#ffffff;fill-opacity:1;stroke:none;stroke-width:0.168092">Planeswalk to our </tspan></text></svg>
